<?xml version="1.0" ?><svg viewBox="0 0 300 219.92" xmlns="http://www.w3.org/2000/svg"><defs><style>.cls-1{fill:#696;}.cls-2{fill:#577f57;}.cls-3{fill:#9c9;}.cls-4{fill:#f16365;}.cls-5{fill:#333;}</style></defs><title/><g data-name="Layer 2" id="Layer_2"><g id="ICON_6"><path class="cls-1" d="M169.41,208.22a119,119,0,0,0,27.88-18.58,112.09,112.09,0,0,0,21.23-25.4,105.4,105.4,0,0,0,12.79-31.65,104,104,0,0,0-8.64-69.4,110.14,110.14,0,0,0-19.3-27.06,124.63,124.63,0,0,0-28.17-21.47,114.27,114.27,0,0,0-32.84-12A125,125,0,0,0,105.81.49,121.62,121.62,0,0,0,71.27,8.7,119.88,119.88,0,0,0,42.1,25.62a113.48,113.48,0,0,0-23,24.16A106.45,106.45,0,0,0,4.42,80,103.84,103.84,0,0,0,8,149.83a108.52,108.52,0,0,0,17.53,28.54,117.15,117.15,0,0,0,25.07,22A118.47,118.47,0,0,0,81.5,214.79a124.72,124.72,0,0,0,71.56-.23A120.33,120.33,0,0,0,169.41,208.22Z"/><path class="cls-2" d="M45.18,52.4a115,115,0,0,1,28-16.23,116.65,116.65,0,0,1,33.13-7.87,119.93,119.93,0,0,1,35.07,2,109.61,109.61,0,0,1,31.5,11.54,119.55,119.55,0,0,1,27,20.6,105.81,105.81,0,0,1,17.86,24.72,94,94,0,0,0-6-15A98.76,98.76,0,0,0,194.47,48a111.75,111.75,0,0,0-25.26-19.25,102.46,102.46,0,0,0-29.44-10.79A112.11,112.11,0,0,0,107,16a109,109,0,0,0-31,7.36A107.49,107.49,0,0,0,49.85,38.56,101.75,101.75,0,0,0,29.27,60.22a95.45,95.45,0,0,0-13.2,27.1,103.81,103.81,0,0,1,7.09-11.74A108.85,108.85,0,0,1,45.18,52.4Z"/><path class="cls-2" d="M45.18,74.66a128.21,128.21,0,0,1,28-12.22,149.19,149.19,0,0,1,33.13-5.93A158.5,158.5,0,0,1,141.36,58a134.17,134.17,0,0,1,31.5,8.69,122.25,122.25,0,0,1,27,15.51,85.07,85.07,0,0,1,17.86,18.62,61.94,61.94,0,0,0-6-11.27,79,79,0,0,0-17.3-18.28,114.28,114.28,0,0,0-25.26-14.5,125.43,125.43,0,0,0-29.44-8.13A148.17,148.17,0,0,0,107,47.26,139.47,139.47,0,0,0,76,52.8,119.85,119.85,0,0,0,49.85,64.23,91.68,91.68,0,0,0,29.27,80.55,66.58,66.58,0,0,0,16.07,101a77.8,77.8,0,0,1,7.09-8.84A98.07,98.07,0,0,1,45.18,74.66Z"/><path class="cls-2" d="M188.63,167.31a115,115,0,0,1-28,16.23,116.65,116.65,0,0,1-33.13,7.87,119.93,119.93,0,0,1-35.07-2A109.61,109.61,0,0,1,61,177.83a119.55,119.55,0,0,1-27-20.6,105.81,105.81,0,0,1-17.86-24.72,94,94,0,0,0,6,15,98.76,98.76,0,0,0,17.3,24.27A111.75,111.75,0,0,0,64.6,191,102.46,102.46,0,0,0,94,201.78a112.11,112.11,0,0,0,32.79,1.91,109,109,0,0,0,31-7.36,107.49,107.49,0,0,0,26.15-15.17,101.75,101.75,0,0,0,20.59-21.67,95.45,95.45,0,0,0,13.2-27.1,103.81,103.81,0,0,1-7.09,11.74A108.85,108.85,0,0,1,188.63,167.31Z"/><path class="cls-2" d="M188.63,145.06a128.21,128.21,0,0,1-28,12.22,149.19,149.19,0,0,1-33.13,5.93,158.5,158.5,0,0,1-35.07-1.54A134.17,134.17,0,0,1,61,153a122.25,122.25,0,0,1-27-15.51,85.07,85.07,0,0,1-17.86-18.62,61.94,61.94,0,0,0,6,11.27,79,79,0,0,0,17.3,18.28,114.28,114.28,0,0,0,25.26,14.5A125.43,125.43,0,0,0,94,171a148.17,148.17,0,0,0,32.79,1.44,139.47,139.47,0,0,0,31-5.54,119.85,119.85,0,0,0,26.15-11.43,91.68,91.68,0,0,0,20.59-16.32,66.58,66.58,0,0,0,13.2-20.41,77.8,77.8,0,0,1-7.09,8.84A98.07,98.07,0,0,1,188.63,145.06Z"/><path class="cls-1" d="M66.35,115.57a103.93,103.93,0,0,0,7.81,34.27,108.52,108.52,0,0,0,17.53,28.54,117.15,117.15,0,0,0,25.07,22,118.47,118.47,0,0,0,30.94,14.41,124.72,124.72,0,0,0,71.56-.23,120.33,120.33,0,0,0,16.36-6.33,119,119,0,0,0,27.88-18.58,112.09,112.09,0,0,0,21.23-25.4,105.4,105.4,0,0,0,12.79-31.65A103.69,103.69,0,0,0,300,110H282.9a86.16,86.16,0,0,1-2.08,18.9,87.91,87.91,0,0,1-10.72,26.5,94.71,94.71,0,0,1-18,21.51,101.69,101.69,0,0,1-23.87,15.91,103.22,103.22,0,0,1-14,5.41,106.3,106.3,0,0,1-30.76,4.61h-.35a106.71,106.71,0,0,1-30.56-4.41,101.09,101.09,0,0,1-26.46-12.33,99.82,99.82,0,0,1-21.41-18.78,91.12,91.12,0,0,1-14.77-24,86.37,86.37,0,0,1-6.52-28.62c-.08-1.56-.11-3.13-.11-4.69H66.21C66.2,111.83,66.25,113.7,66.35,115.57Z"/><path class="cls-3" d="M272.47,127a79.36,79.36,0,0,1-9.68,23.93,86.12,86.12,0,0,1-16.37,19.57,93.15,93.15,0,0,1-21.86,14.58,94.53,94.53,0,0,1-12.82,5,97.76,97.76,0,0,1-28.29,4.24h-.33A98.17,98.17,0,0,1,155,190.2a92.53,92.53,0,0,1-24.22-11.29,91.28,91.28,0,0,1-19.58-17.17A82.61,82.61,0,0,1,97.84,140,77.84,77.84,0,0,1,92,114.19c-.08-1.41-.1-2.82-.1-4.22H83.32c0,1.56,0,3.12.11,4.69a86.37,86.37,0,0,0,6.52,28.62,91.12,91.12,0,0,0,14.77,24,99.82,99.82,0,0,0,21.41,18.78,101.09,101.09,0,0,0,26.46,12.33,106.71,106.71,0,0,0,30.56,4.41h.35a106.3,106.3,0,0,0,30.76-4.61,103.22,103.22,0,0,0,14-5.41,101.69,101.69,0,0,0,23.87-15.91,94.71,94.71,0,0,0,18-21.51,87.91,87.91,0,0,0,10.72-26.5A86.16,86.16,0,0,0,282.9,110h-8.55A77.63,77.63,0,0,1,272.47,127Z"/><path class="cls-4" d="M92,114.19A77.84,77.84,0,0,0,97.84,140a82.61,82.61,0,0,0,13.39,21.77,91.28,91.28,0,0,0,19.58,17.17A92.53,92.53,0,0,0,155,190.2a98.17,98.17,0,0,0,28.1,4.05h.33A97.76,97.76,0,0,0,211.75,190a94.53,94.53,0,0,0,12.82-5,93.15,93.15,0,0,0,21.86-14.58,86.12,86.12,0,0,0,16.37-19.57A79.36,79.36,0,0,0,272.47,127a77.63,77.63,0,0,0,1.87-17H91.87C91.87,111.37,91.89,112.78,92,114.19Zm150.34,13.5a2.44,2.44,0,0,1,4.86,0,4.68,4.68,0,0,1,0,8,2.44,2.44,0,0,1-4.86,0,4.68,4.68,0,0,1,0-8Zm-11.27,20a2.44,2.44,0,0,1,4.86,0,4.68,4.68,0,0,1,0,8,2.44,2.44,0,0,1-4.86,0,4.68,4.68,0,0,1,0-8Zm-16.47,25.86a2.44,2.44,0,0,1-4.86,0,4.68,4.68,0,0,1,0-8,2.44,2.44,0,0,1,4.86,0,4.68,4.68,0,0,1,0,8ZM211,127.68a2.44,2.44,0,0,1,4.86,0,4.68,4.68,0,0,1,0,8,2.44,2.44,0,0,1-4.86,0,4.68,4.68,0,0,1,0-8Zm-10.67,20a2.44,2.44,0,0,1,4.86,0,4.68,4.68,0,0,1,0,8,2.44,2.44,0,0,1-4.86,0,4.68,4.68,0,0,1,0-8Zm-14.21,32.08a2.44,2.44,0,0,1-4.86,0,4.68,4.68,0,0,1,0-8,2.44,2.44,0,0,1,4.86,0,4.68,4.68,0,0,1,0,8Zm-5.83-52.13a2.44,2.44,0,0,1,4.86,0,4.68,4.68,0,0,1,0,8,2.44,2.44,0,0,1-4.86,0,4.68,4.68,0,0,1,0-8Zm-10.67,20a2.44,2.44,0,0,1,4.86,0,4.68,4.68,0,0,1,0,8,2.44,2.44,0,0,1-4.86,0,4.68,4.68,0,0,1,0-8ZM158,167a4.68,4.68,0,0,1,0,8,2.44,2.44,0,0,1-4.86,0,4.68,4.68,0,0,1,0-8,2.44,2.44,0,0,1,4.86,0Zm-8.39-39.33a2.44,2.44,0,0,1,4.86,0,4.68,4.68,0,0,1,0,8,2.44,2.44,0,0,1-4.86,0,4.68,4.68,0,0,1,0-8Zm-10.67,20a2.44,2.44,0,0,1,4.86,0,4.68,4.68,0,0,1,0,8,2.44,2.44,0,0,1-4.86,0,4.68,4.68,0,0,1,0-8Zm-20-20a2.44,2.44,0,0,1,4.86,0,4.68,4.68,0,0,1,0,8,2.44,2.44,0,0,1-4.86,0,4.68,4.68,0,0,1,0-8Z"/><path class="cls-5" d="M214.57,165.59a2.44,2.44,0,0,0-4.86,0,4.68,4.68,0,0,0,0,8,2.44,2.44,0,0,0,4.86,0,4.68,4.68,0,0,0,0-8Z"/><path class="cls-5" d="M153.12,167a4.68,4.68,0,0,0,0,8,2.44,2.44,0,0,0,4.86,0,4.68,4.68,0,0,0,0-8,2.44,2.44,0,0,0-4.86,0Z"/><path class="cls-5" d="M186.13,171.81a2.44,2.44,0,0,0-4.86,0,4.68,4.68,0,0,0,0,8,2.44,2.44,0,0,0,4.86,0,4.68,4.68,0,0,0,0-8Z"/><path class="cls-5" d="M118.88,135.69a2.44,2.44,0,0,0,4.86,0,4.68,4.68,0,0,0,0-8,2.44,2.44,0,0,0-4.86,0,4.68,4.68,0,0,0,0,8Z"/><path class="cls-5" d="M149.59,135.69a2.44,2.44,0,0,0,4.86,0,4.68,4.68,0,0,0,0-8,2.44,2.44,0,0,0-4.86,0,4.68,4.68,0,0,0,0,8Z"/><path class="cls-5" d="M180.29,135.69a2.44,2.44,0,0,0,4.86,0,4.68,4.68,0,0,0,0-8,2.44,2.44,0,0,0-4.86,0,4.68,4.68,0,0,0,0,8Z"/><path class="cls-5" d="M211,135.69a2.44,2.44,0,0,0,4.86,0,4.68,4.68,0,0,0,0-8,2.44,2.44,0,0,0-4.86,0,4.68,4.68,0,0,0,0,8Z"/><path class="cls-5" d="M242.31,135.69a2.44,2.44,0,0,0,4.86,0,4.68,4.68,0,0,0,0-8,2.44,2.44,0,0,0-4.86,0,4.68,4.68,0,0,0,0,8Z"/><path class="cls-5" d="M138.92,155.74a2.44,2.44,0,0,0,4.86,0,4.68,4.68,0,0,0,0-8,2.44,2.44,0,0,0-4.86,0,4.68,4.68,0,0,0,0,8Z"/><path class="cls-5" d="M169.63,155.74a2.44,2.44,0,0,0,4.86,0,4.68,4.68,0,0,0,0-8,2.44,2.44,0,0,0-4.86,0,4.68,4.68,0,0,0,0,8Z"/><path class="cls-5" d="M200.34,155.74a2.44,2.44,0,0,0,4.86,0,4.68,4.68,0,0,0,0-8,2.44,2.44,0,0,0-4.86,0,4.68,4.68,0,0,0,0,8Z"/><path class="cls-5" d="M231,155.74a2.44,2.44,0,0,0,4.86,0,4.68,4.68,0,0,0,0-8,2.44,2.44,0,0,0-4.86,0,4.68,4.68,0,0,0,0,8Z"/></g></g></svg>